# This file uses meters as units for non-parametric coordinates.

mtllib Tuna.mtl
g default
v 17.829724 6.178105 -15.633831
v 27.762347 4.244717 -8.657577
v 16.643116 13.885744 -12.068150
v 27.246966 9.323234 -6.477570
v 18.912409 -6.217753 -15.508705
v 18.269839 -1.660053 -16.522536
v 12.990987 17.325342 -3.927400
v 17.087748 17.458234 -6.724432
v 27.787081 1.700660 3.250545
v 28.715804 1.846468 1.832599
v 22.591884 -6.546524 -8.408136
v 27.867094 -1.076118 -10.144435
v 19.060720 10.762881 0.974811
v 25.637094 13.895079 -0.347012
v -0.334496 5.799281 -15.808561
v 0.122076 -2.631506 -16.613191
v 0.276281 -6.313577 -15.514092
v 0.075657 -6.573238 -12.433720
v 0.859718 -7.593351 16.675129
v -2.739058 14.758596 -3.220685
v -1.982108 17.795857 -5.672777
v -0.752072 19.357569 -6.794913
v -0.231602 14.205145 -11.930483
v -16.842305 6.188074 -15.624201
v -28.298397 3.723333 -8.419137
v -16.899683 14.202474 -11.838466
v -27.981094 9.650850 -5.662602
v -15.717791 -6.272393 -14.832446
v -15.807625 -1.555020 -16.485284
v -11.821814 17.063843 0.533305
v -14.933903 19.963581 -5.567521
v -23.183013 -4.661156 13.082561
v -28.715804 0.701039 3.131391
v -20.088876 -6.427039 -7.417789
v -27.927040 -3.571331 -9.607481
v -15.592892 10.296884 5.353409
v -24.478557 12.925372 1.207360
vt 0.174196 0.471501
vt 0.174094 0.427785
vt 0.150172 0.529791
vt 0.162169 0.541743
vt 0.181415 0.509472
vt 0.158791 0.522524
vt 0.162394 0.541583
vt 0.162475 0.674822
vt 0.159302 0.516047
vt 0.154391 0.425813
vt 0.180964 0.390000
vt 0.154579 0.473308
vt 0.158972 0.383923
vt 0.298206 0.448989
vt 0.311428 0.448911
vt 0.183693 0.515859
vt 0.183262 0.383437
vt 0.158402 0.377427
vt 0.150183 0.529619
vt 0.162384 0.674772
vt 0.018581 0.516056
vt 0.018611 0.522543
vt 0.016986 0.529654
vt 0.017094 0.541612
vt 0.016935 0.674745
vt 0.017027 0.674848
vt 0.016869 0.541715
vt 0.018222 0.377445
vt 0.016976 0.529756
vt 0.018251 0.383932
vt 0.018321 0.426246
vt 0.018510 0.473742
vt 0.174196 0.471501
vt 0.154579 0.473308
vt 0.154391 0.425813
vt 0.174094 0.427785
vt 0.158791 0.522524
vt 0.159302 0.516047
vt 0.181415 0.509472
vt 0.183693 0.515859
vt 0.158972 0.383923
vt 0.158402 0.377427
vt 0.183262 0.383437
vt 0.180964 0.390000
vt 0.311428 0.448911
vt 0.298206 0.448989
vt 0.018581 0.516056
vt 0.018510 0.473742
vt 0.018611 0.522543
vt 0.162394 0.541583
vt 0.017094 0.541612
vt 0.016986 0.529654
vt 0.150183 0.529619
vt 0.016935 0.674745
vt 0.162384 0.674772
vt 0.162169 0.541743
vt 0.016869 0.541715
vt 0.017027 0.674848
vt 0.162475 0.674822
vt 0.016976 0.529756
vt 0.150172 0.529791
vt 0.018251 0.383932
vt 0.018222 0.377445
vt 0.018321 0.426246
vn 0.732045 0.255688 -0.631453
vn 0.216012 0.283784 -0.934241
vn 0.215818 0.597273 -0.772455
vn 0.739412 0.482094 -0.469952
vn 0.178966 -0.841623 -0.509550
vn 0.226874 -0.049197 -0.972681
vn 0.820642 -0.263628 -0.506998
vn 0.261745 -0.962255 0.074534
vn 0.259745 0.936468 -0.235710
vn -0.023499 0.702859 0.710941
vn 0.079935 0.601571 0.794810
vn 0.605907 0.759529 0.236628
vn 0.344608 -0.520302 0.781365
vn 0.848158 -0.291237 0.442503
vn -0.004701 -0.035117 -0.999372
vn -0.000958 0.270911 -0.962604
vn -0.005942 -0.831918 -0.554867
vn 0.055750 -0.997027 0.053193
vn 0.147299 -0.553980 0.819396
vn 0.104496 0.577968 0.809341
vn 0.097855 0.701287 0.706131
vn 0.033762 0.899550 -0.435510
vn 0.007321 0.577322 -0.816484
vn -0.733370 0.175213 -0.656863
vn -0.760604 0.517649 -0.391817
vn -0.306214 0.617468 -0.724545
vn -0.252498 0.262819 -0.931220
vn -0.134606 -0.862934 -0.487059
vn -0.179303 -0.983280 -0.031782
vn -0.734286 -0.552033 -0.395074
vn -0.224805 -0.116109 -0.967461
vn -0.256365 0.954915 -0.149715
vn -0.590820 0.690964 0.416534
vn -0.021781 0.599424 0.800135
vn 0.106898 0.694099 0.711898
vn -0.255548 -0.662299 0.704312
vn -0.829297 -0.231184 0.508744
s 1
g Tuna Ingredients
usemtl lambert5SG
f 2/1/1 1/12/2 3/10/3 4/2/4
f 5/6/5 6/9/6 12/5/7 11/16/8
f 8/13/9 7/18/10 13/17/11 14/11/12
f 9/15/13 10/14/14 14/11/12 13/17/11
f 10/14/14 9/15/13 11/16/8 12/5/7
f 12/5/7 6/9/6 1/12/2 2/1/1
f 4/2/4 3/10/3 8/13/9 14/11/12
f 12/5/7 2/1/1 10/14/14
f 2/1/1 4/2/4 10/14/14
f 4/2/4 14/11/12 10/14/14
f 16/21/15 15/32/16 1/12/2 6/9/6
f 17/22/17 16/21/15 6/9/6 5/6/5
f 11/7/8 18/24/18 17/23/17 5/19/5
f 19/25/19 18/24/18 11/7/8 9/20/13
f 13/4/11 20/27/20 19/26/19 9/8/13
f 21/29/21 20/27/20 13/4/11 7/3/10
f 22/30/22 21/28/21 7/18/10 8/13/9
f 23/31/23 22/30/22 8/13/9 3/10/3
f 15/32/16 23/31/23 3/10/3 1/12/2
f 25/33/24 27/36/25 26/35/26 24/34/27
f 28/37/28 34/40/29 35/39/30 29/38/31
f 31/41/32 37/44/33 36/43/34 30/42/35
f 32/45/36 36/43/34 37/44/33 33/46/37
f 33/46/37 35/39/30 34/40/29 32/45/36
f 35/39/30 25/33/24 24/34/27 29/38/31
f 27/36/25 37/44/33 31/41/32 26/35/26
f 35/39/30 33/46/37 25/33/24
f 25/33/24 33/46/37 27/36/25
f 27/36/25 33/46/37 37/44/33
f 16/47/15 29/38/31 24/34/27 15/48/16
f 17/49/17 28/37/28 29/38/31 16/47/15
f 34/50/29 28/53/28 17/52/17 18/51/18
f 19/54/19 32/55/36 34/50/29 18/51/18
f 36/56/34 32/59/36 19/58/19 20/57/20
f 21/60/21 30/61/35 36/56/34 20/57/20
f 22/62/22 31/41/32 30/42/35 21/63/21
f 23/64/23 26/35/26 31/41/32 22/62/22
f 15/48/16 24/34/27 26/35/26 23/64/23
