# This file uses meters as units for non-parametric coordinates.

mtllib Cucumber.mtl
g default
v 26.032298 3.832302 -14.767840
v 28.853901 2.874994 -11.761551
v 26.032298 12.654657 -10.337704
v 28.853901 10.815207 -7.774380
v 25.636632 -5.921119 -15.209126
v 26.032298 -4.881209 -16.095554
v 25.627291 18.813910 -2.763918
v 26.032298 18.923666 -4.141988
v 27.963673 -5.741857 15.298353
v 28.853901 -4.770024 13.362980
v 27.960931 -5.906323 -12.694934
v 28.853901 -4.899638 -12.946219
v 27.909926 16.789948 -1.275159
v 28.853901 16.408729 -2.246205
v -0.000001 3.832302 -14.767840
v -0.000001 -4.881209 -16.095554
v -0.000001 -5.921030 -15.196830
v -0.000001 -5.906265 -12.683371
v -0.000001 -5.741857 15.298353
v -0.000001 16.799230 -1.281916
v -0.000001 18.823903 -2.771253
v -0.000001 18.923666 -4.141988
v -0.000001 12.654657 -10.337704
v -26.032298 3.832302 -14.767840
v -28.853901 2.874994 -11.761551
v -26.032298 12.654657 -10.337704
v -28.853901 10.815207 -7.774380
v -25.636632 -5.921119 -15.209126
v -26.032298 -4.881209 -16.095554
v -25.627291 18.813910 -2.763918
v -26.032298 18.923666 -4.141988
v -27.963671 -5.741857 15.298353
v -28.853901 -4.770024 13.362980
v -27.960931 -5.906323 -12.694934
v -28.853901 -4.899638 -12.946219
v -27.909926 16.789948 -1.275159
v -28.853901 16.408729 -2.246205
vt 0.794757 0.900392
vt 0.794859 0.944108
vt 0.818780 0.842102
vt 0.806784 0.830149
vt 0.787538 0.862421
vt 0.810162 0.849368
vt 0.806477 0.830206
vt 0.806477 0.697071
vt 0.809651 0.855846
vt 0.814562 0.946080
vt 0.787989 0.981892
vt 0.814374 0.898585
vt 0.809981 0.987970
vt 0.670747 0.922904
vt 0.657525 0.922981
vt 0.785260 0.856033
vt 0.785691 0.988456
vt 0.810551 0.994466
vt 0.818688 0.842171
vt 0.806487 0.697018
vt 0.950371 0.855837
vt 0.950342 0.849349
vt 0.951885 0.842136
vt 0.951777 0.830178
vt 0.951936 0.697044
vt 0.951926 0.697044
vt 0.952084 0.830178
vt 0.950731 0.994448
vt 0.951977 0.842136
vt 0.950702 0.987961
vt 0.950632 0.945646
vt 0.950443 0.898151
vt 0.794757 0.900392
vt 0.814374 0.898585
vt 0.814562 0.946080
vt 0.794859 0.944108
vt 0.810162 0.849368
vt 0.809651 0.855846
vt 0.787538 0.862421
vt 0.785260 0.856033
vt 0.809981 0.987970
vt 0.810551 0.994466
vt 0.785691 0.988456
vt 0.787989 0.981892
vt 0.657525 0.922981
vt 0.670747 0.922904
vt 0.950371 0.855837
vt 0.950443 0.898151
vt 0.950342 0.849349
vt 0.806477 0.830206
vt 0.951777 0.830178
vt 0.951885 0.842136
vt 0.818688 0.842171
vt 0.951936 0.697044
vt 0.806487 0.697018
vt 0.806784 0.830149
vt 0.952084 0.830178
vt 0.951926 0.697044
vt 0.806477 0.697071
vt 0.951977 0.842136
vt 0.818780 0.842102
vt 0.950702 0.987961
vt 0.950731 0.994448
vt 0.950632 0.945646
vn 0.745381 0.208170 -0.633302
vn 0.745381 0.208170 -0.633303
vn 0.745382 0.383615 -0.545202
vn 0.745382 0.383615 -0.545201
vn 0.566552 -0.643121 -0.515184
vn 0.566552 -0.643121 -0.515184
vn 0.566552 -0.643121 -0.515184
vn 0.566552 -0.643121 -0.515184
vn 0.558059 0.797785 0.228273
vn 0.558059 0.797785 0.228273
vn 0.558059 0.797785 0.228273
vn 0.558059 0.797785 0.228273
vn 0.734954 0.402641 0.545640
vn 0.734954 0.402641 0.545640
vn 0.734954 0.402641 0.545640
vn 0.734954 0.402641 0.545640
vn 0.744779 -0.667302 0.003576
vn 0.744779 -0.667302 0.003576
vn 0.744779 -0.667302 0.003576
vn 0.744779 -0.667302 0.003576
vn 0.741275 0.101107 -0.663542
vn 0.741275 0.101107 -0.663542
vn 0.741278 0.471811 -0.477390
vn 0.741278 0.471811 -0.477390
vn 1.000000 -0.000000 0.000000
vn 1.000000 -0.000000 0.000000
vn 1.000000 -0.000000 0.000000
vn 1.000000 -0.000000 0.000000
vn 1.000000 -0.000000 0.000000
vn 0.000000 0.150635 -0.988589
vn 0.000000 0.311961 -0.950095
vn 0.000000 0.311961 -0.950095
vn 0.000000 0.150635 -0.988589
vn -0.000000 -0.651302 -0.758819
vn -0.000000 -0.651302 -0.758819
vn -0.000182 -0.651302 -0.758819
vn -0.000182 -0.651302 -0.758819
vn 0.000000 -0.999983 0.005875
vn -0.000000 -0.999983 0.005876
vn -0.000000 -0.999983 0.005880
vn -0.000000 -0.999983 0.005880
vn 0.000000 -0.999983 0.005875
vn 0.000000 -0.999983 0.005875
vn 0.000001 0.592530 0.805549
vn -0.000000 0.592530 0.805548
vn -0.000000 0.592529 0.805549
vn 0.000001 0.592529 0.805549
vn -0.000000 0.592540 0.805541
vn 0.000001 0.592540 0.805541
vn -0.000000 0.997106 0.076027
vn 0.000000 0.997106 0.076028
vn 0.000182 0.997106 0.076028
vn 0.000182 0.997106 0.076028
vn 0.000000 0.575711 -0.817653
vn 0.000000 0.702937 -0.711252
vn 0.000000 0.702937 -0.711252
vn 0.000000 0.575711 -0.817653
vn -0.745381 0.208170 -0.633302
vn -0.745382 0.383615 -0.545201
vn -0.745382 0.383615 -0.545201
vn -0.745381 0.208170 -0.633303
vn -0.566551 -0.643122 -0.515183
vn -0.566552 -0.643122 -0.515183
vn -0.566552 -0.643122 -0.515183
vn -0.566551 -0.643122 -0.515183
vn -0.558059 0.797785 0.228274
vn -0.558059 0.797785 0.228273
vn -0.558059 0.797785 0.228273
vn -0.558059 0.797785 0.228273
vn -0.734953 0.402642 0.545641
vn -0.734953 0.402642 0.545641
vn -0.734953 0.402642 0.545641
vn -0.734953 0.402642 0.545641
vn -0.744778 -0.667302 0.003576
vn -0.744778 -0.667302 0.003576
vn -0.744778 -0.667302 0.003576
vn -0.744778 -0.667302 0.003576
vn -0.741275 0.101107 -0.663542
vn -0.741275 0.101107 -0.663542
vn -0.741278 0.471811 -0.477390
vn -0.741278 0.471811 -0.477390
vn -1.000000 -0.000000 -0.000000
vn -1.000000 -0.000000 -0.000000
vn -1.000000 0.000000 0.000000
vn -1.000000 0.000000 0.000000
vn -1.000000 -0.000000 -0.000000
vn 0.000000 0.150635 -0.988589
vn 0.000000 0.311961 -0.950095
vn 0.000182 -0.651302 -0.758819
vn 0.000182 -0.651302 -0.758819
vn -0.000000 -0.999983 0.005875
vn 0.000000 -0.999983 0.005879
vn -0.000000 -0.999983 0.005875
vn -0.000001 0.592529 0.805549
vn -0.000001 0.592529 0.805549
vn -0.000001 0.592540 0.805541
vn -0.000182 0.997106 0.076028
vn -0.000182 0.997106 0.076028
vn 0.000000 0.575711 -0.817653
vn 0.000000 0.702937 -0.711252
s 1
g Cucumber Ingredients
usemtl lambert5SG
f 2/1/1 1/12/2 3/10/3 4/2/4
s off
f 5/6/5 6/9/6 12/5/7 11/16/8
f 8/13/9 7/18/10 13/17/11 14/11/12
f 9/15/13 10/14/14 14/11/15 13/17/16
f 10/14/17 9/15/18 11/16/19 12/5/20
s 1
f 12/5/21 6/9/22 1/12/2 2/1/1
f 4/2/4 3/10/3 8/13/23 14/11/24
s 2
f 12/5/25 2/1/26 10/14/27
f 2/1/26 4/2/28 10/14/27
f 4/2/28 14/11/29 10/14/27
s 3
f 16/21/30 15/32/31 1/12/32 6/9/33
s 4
f 17/22/34 16/21/35 6/9/36 5/6/37
s 5
f 11/7/38 18/24/39 17/23/40 5/19/41
f 19/25/42 18/24/39 11/7/38 9/20/43
s 6
f 13/4/44 20/27/45 19/26/46 9/8/47
f 21/29/48 20/27/45 13/4/44 7/3/49
s 7
f 22/30/50 21/28/51 7/18/52 8/13/53
s 3
f 23/31/54 22/30/55 8/13/56 3/10/57
f 15/32/31 23/31/54 3/10/57 1/12/32
s 9
f 25/33/58 27/36/59 26/35/60 24/34/61
s off
f 28/37/62 34/40/63 35/39/64 29/38/65
f 31/41/66 37/44/67 36/43/68 30/42/69
f 32/45/70 36/43/71 37/44/72 33/46/73
f 33/46/74 35/39/75 34/40/76 32/45/77
s 9
f 35/39/78 25/33/58 24/34/61 29/38/79
f 27/36/59 37/44/80 31/41/81 26/35/60
s 10
f 35/39/82 33/46/83 25/33/84
f 25/33/84 33/46/83 27/36/85
f 27/36/85 33/46/83 37/44/86
s 3
f 16/47/30 29/38/87 24/34/88 15/48/31
s 4
f 17/49/34 28/37/89 29/38/90 16/47/35
s 5
f 34/50/91 28/53/92 17/52/40 18/51/39
f 19/54/42 32/55/93 34/50/91 18/51/39
s 6
f 36/56/94 32/59/95 19/58/46 20/57/45
f 21/60/48 30/61/96 36/56/94 20/57/45
s 7
f 22/62/50 31/41/97 30/42/98 21/63/51
s 3
f 23/64/54 26/35/99 31/41/100 22/62/55
f 15/48/31 24/34/88 26/35/99 23/64/54
