# This file uses meters as units for non-parametric coordinates.

mtllib Egg.mtl
g default
v 31.240314 4.194078 -18.732319
v 31.240314 5.970747 -17.281697
v 33.016987 4.194078 -17.281697
v 0.000000 5.970747 -17.281697
v 0.000000 4.194078 -18.732319
v 33.016987 4.194078 -0.000000
v 31.240314 5.970747 -0.000000
v -0.000000 5.970747 -0.000000
v 33.016987 -0.000000 -0.000000
v 33.016987 -0.000000 -17.281697
v 31.240314 -0.000000 -18.732319
v 0.000000 -0.000000 -18.732319
v 31.240314 -4.194078 -18.732319
v 31.240314 -5.970747 -17.281697
v 33.016987 -4.194078 -17.281697
v 0.000000 -5.970747 -17.281697
v 0.000000 -4.194078 -18.732319
v 33.016987 -4.194078 -0.000000
v 31.240314 -5.970747 -0.000000
v -0.000000 -5.970747 -0.000000
v -31.240314 4.194078 -18.732319
v -31.240314 5.970747 -17.281697
v -33.016987 4.194078 -17.281697
v -33.016987 4.194078 -0.000000
v -31.240314 5.970747 -0.000000
v -33.016987 -0.000000 -0.000000
v -33.016987 -0.000000 -17.281697
v -31.240314 -0.000000 -18.732319
v -31.240314 -4.194078 -18.732319
v -31.240314 -5.970747 -17.281697
v -33.016987 -4.194078 -17.281697
v -33.016987 -4.194078 -0.000000
v -31.240314 -5.970747 -0.000000
v 31.240314 4.194078 18.732319
v 31.240314 5.970747 17.281709
v 33.016987 4.194078 17.281709
v -0.000000 5.970747 17.281709
v -0.000000 4.194078 18.732319
v 33.016987 -0.000000 17.281709
v 31.240314 -0.000000 18.732319
v -0.000000 -0.000000 18.732319
v 31.240314 -4.194078 18.732319
v 31.240314 -5.970747 17.281709
v 33.016987 -4.194078 17.281709
v 0.000000 -5.970747 17.281709
v 0.000000 -4.194078 18.732319
v -31.240314 4.194078 18.732319
v -31.240314 5.970747 17.281709
v -33.016987 4.194078 17.281709
v -33.016987 -0.000000 17.281709
v -31.240314 -0.000000 18.732319
v -31.240314 -4.194078 18.732319
v -31.240314 -5.970747 17.281709
v -33.016987 -4.194078 17.281709
vt 0.948955 0.270687
vt 0.964510 0.265138
vt 0.943903 0.286234
vt 0.948955 0.270687
vt 0.792699 0.270687
vt 0.792699 0.270687
vt 0.792699 0.286233
vt 0.964511 0.164973
vt 0.948955 0.164973
vt 0.948955 0.164973
vt 0.792699 0.164973
vt 0.985955 0.164973
vt 0.943903 0.307679
vt 0.792699 0.307679
vt 0.985955 0.265138
vt 0.954771 0.286234
vt 0.954771 0.307679
vt 0.948955 0.270687
vt 0.943903 0.286234
vt 0.954771 0.286234
vt 0.954771 0.307679
vt 0.943903 0.307679
vt 0.948955 0.270687
vt 0.792699 0.286233
vt 0.792699 0.270687
vt 0.792699 0.307679
vt 0.964511 0.164973
vt 0.985955 0.164973
vt 0.985955 0.265138
vt 0.964510 0.265138
vt 0.948955 0.164973
vt 0.948955 0.270687
vt 0.792699 0.270687
vt 0.792699 0.164973
vt 0.948955 0.164973
vt 0.948955 0.270687
vt 0.943903 0.286234
vt 0.954771 0.286234
vt 0.954771 0.307679
vt 0.943903 0.307679
vt 0.948955 0.270687
vt 0.792699 0.286233
vt 0.792699 0.270687
vt 0.792699 0.307679
vt 0.964511 0.164973
vt 0.985955 0.164973
vt 0.985955 0.265138
vt 0.964510 0.265138
vt 0.948955 0.164973
vt 0.948955 0.270687
vt 0.792699 0.270687
vt 0.792699 0.164973
vt 0.948955 0.164973
vt 0.948955 0.270687
vt 0.943903 0.286234
vt 0.943903 0.307679
vt 0.954771 0.307679
vt 0.954771 0.286234
vt 0.948955 0.270687
vt 0.792699 0.286233
vt 0.792699 0.270687
vt 0.792699 0.307679
vt 0.964511 0.164973
vt 0.964510 0.265138
vt 0.985955 0.265138
vt 0.985955 0.164973
vt 0.948955 0.164973
vt 0.948955 0.270687
vt 0.792699 0.270687
vt 0.948955 0.270687
vt 0.948955 0.164973
vt 0.792699 0.164973
vt 0.943903 0.286234
vt 0.954771 0.286234
vt 0.954771 0.307679
vt 0.943903 0.307679
vt 0.948955 0.270687
vt 0.792699 0.286233
vt 0.792699 0.270687
vt 0.792699 0.307679
vt 0.964511 0.164973
vt 0.985955 0.164973
vt 0.985955 0.265138
vt 0.964510 0.265138
vt 0.948955 0.164973
vt 0.948955 0.270687
vt 0.792699 0.270687
vt 0.792699 0.164973
vt 0.948955 0.164973
vt 0.948955 0.270687
vt 0.943903 0.286234
vt 0.943903 0.307679
vt 0.954771 0.307679
vt 0.954771 0.286234
vt 0.948955 0.270687
vt 0.792699 0.286233
vt 0.792699 0.270687
vt 0.792699 0.307679
vt 0.964511 0.164973
vt 0.964510 0.265138
vt 0.985955 0.265138
vt 0.985955 0.164973
vt 0.948955 0.164973
vt 0.948955 0.270687
vt 0.792699 0.270687
vt 0.948955 0.270687
vt 0.948955 0.164973
vt 0.792699 0.164973
vt 0.943903 0.286234
vt 0.943903 0.307679
vt 0.954771 0.307679
vt 0.954771 0.286234
vt 0.948955 0.270687
vt 0.792699 0.286233
vt 0.792699 0.270687
vt 0.792699 0.307679
vt 0.964511 0.164973
vt 0.964510 0.265138
vt 0.985955 0.265138
vt 0.985955 0.164973
vt 0.948955 0.164973
vt 0.948955 0.270687
vt 0.792699 0.270687
vt 0.948955 0.270687
vt 0.948955 0.164973
vt 0.792699 0.164973
vt 0.943903 0.286234
vt 0.954771 0.286234
vt 0.954771 0.307679
vt 0.943903 0.307679
vt 0.948955 0.270687
vt 0.792699 0.286233
vt 0.792699 0.270687
vt 0.792699 0.307679
vt 0.964511 0.164973
vt 0.985955 0.164973
vt 0.985955 0.265138
vt 0.964510 0.265138
vt 0.948955 0.164973
vt 0.948955 0.270687
vt 0.792699 0.270687
vt 0.792699 0.164973
vt 0.948955 0.164973
vt 0.948955 0.270687
vn 0.035847 0.231116 -0.972266
vn 0.957843 0.276667 -0.077413
vn 0.995532 0.000000 -0.094422
vn 0.043893 0.000000 -0.999036
vn 0.049974 0.994678 -0.090101
vn 0.000000 0.236087 -0.971732
vn 0.000000 0.995532 -0.094421
vn 0.000000 0.000000 -1.000000
vn 0.958467 0.285204 0.000000
vn 1.000000 0.000000 0.000000
vn 0.053733 0.998555 0.000000
vn 0.000000 1.000000 0.000000
vn 0.035847 -0.231116 -0.972266
vn 0.043893 0.000000 -0.999036
vn 0.995532 0.000000 -0.094422
vn 0.957843 -0.276667 -0.077413
vn 0.049974 -0.994678 -0.090101
vn 0.000000 -0.236087 -0.971732
vn 0.000000 -0.995532 -0.094421
vn 0.000000 0.000000 -1.000000
vn 0.958467 -0.285204 0.000000
vn 1.000000 0.000000 0.000000
vn 0.053733 -0.998555 0.000000
vn 0.000000 -1.000000 0.000000
vn -0.035847 0.231116 -0.972266
vn -0.043893 0.000000 -0.999036
vn -0.995532 0.000000 -0.094422
vn -0.957843 0.276667 -0.077413
vn -0.049974 0.994678 -0.090101
vn 0.000000 0.236087 -0.971732
vn 0.000000 0.995532 -0.094421
vn 0.000000 0.000000 -1.000000
vn -0.958467 0.285204 0.000000
vn -1.000000 0.000000 0.000000
vn -0.053733 0.998555 -0.000000
vn 0.000000 1.000000 -0.000000
vn -0.035847 -0.231116 -0.972266
vn -0.957843 -0.276667 -0.077413
vn -0.995532 0.000000 -0.094422
vn -0.043893 0.000000 -0.999036
vn -0.049974 -0.994678 -0.090101
vn 0.000000 -0.236087 -0.971732
vn 0.000000 -0.995532 -0.094421
vn 0.000000 0.000000 -1.000000
vn -0.958467 -0.285204 0.000000
vn -1.000000 0.000000 0.000000
vn -0.053733 -0.998555 0.000000
vn 0.000000 -1.000000 0.000000
vn 0.035846 0.231114 0.972266
vn 0.043893 0.000000 0.999036
vn 0.995532 0.000000 0.094422
vn 0.957843 0.276667 0.077413
vn 0.049974 0.994678 0.090101
vn 0.000000 0.236085 0.971732
vn 0.000000 0.995532 0.094421
vn 0.000000 0.000000 1.000000
vn 0.958467 0.285204 0.000000
vn 1.000000 0.000000 0.000000
vn 0.053733 0.998555 0.000000
vn 0.000000 1.000000 0.000000
vn 0.035846 -0.231114 0.972266
vn 0.957843 -0.276667 0.077413
vn 0.995532 0.000000 0.094422
vn 0.043893 0.000000 0.999036
vn 0.049974 -0.994678 0.090101
vn 0.000000 -0.236085 0.971732
vn 0.000000 -0.995532 0.094421
vn 0.000000 0.000000 1.000000
vn 0.958467 -0.285204 0.000000
vn 1.000000 0.000000 0.000000
vn 0.053733 -0.998555 0.000000
vn 0.000000 -1.000000 0.000000
vn -0.035846 0.231114 0.972266
vn -0.957843 0.276667 0.077413
vn -0.995532 0.000000 0.094422
vn -0.043893 0.000000 0.999036
vn -0.049974 0.994678 0.090101
vn 0.000000 0.236085 0.971732
vn 0.000000 0.995532 0.094421
vn 0.000000 0.000000 1.000000
vn -0.958467 0.285204 0.000000
vn -1.000000 0.000000 0.000000
vn -0.053733 0.998555 0.000000
vn 0.000000 1.000000 0.000000
vn -0.035846 -0.231114 0.972266
vn -0.043893 0.000000 0.999036
vn -0.995532 0.000000 0.094422
vn -0.957843 -0.276667 0.077413
vn -0.049974 -0.994678 0.090101
vn 0.000000 -0.236085 0.971732
vn 0.000000 -0.995532 0.094421
vn 0.000000 0.000000 1.000000
vn -0.958467 -0.285204 0.000000
vn -1.000000 0.000000 0.000000
vn -0.053733 -0.998555 0.000000
vn 0.000000 -1.000000 0.000000
s 1
g Egg Ingredients
usemtl lambert5SG
f 1/3/1 3/16/2 10/17/3 11/13/4
f 1/3/1 2/1/5 3/16/2
f 5/7/6 4/5/7 2/1/5 1/3/1
f 11/13/4 12/14/8 5/7/6 1/3/1
f 6/8/9 9/12/10 10/15/3 3/2/2
f 7/9/11 6/8/9 3/2/2 2/18/5
f 4/6/7 8/11/12 7/10/11 2/4/5
s 2
f 13/19/13 11/22/14 10/21/15 15/20/16
f 13/19/13 15/20/16 14/23/17
f 17/24/18 13/19/13 14/23/17 16/25/19
f 11/22/14 13/19/13 17/24/18 12/26/20
f 18/27/21 15/30/16 10/29/15 9/28/22
f 19/31/23 14/32/17 15/30/16 18/27/21
f 16/33/19 14/36/17 19/35/23 20/34/24
s 3
f 21/37/25 28/40/26 27/39/27 23/38/28
f 21/37/25 23/38/28 22/41/29
f 5/42/30 21/37/25 22/41/29 4/43/31
f 28/40/26 21/37/25 5/42/30 12/44/32
f 24/45/33 23/48/28 27/47/27 26/46/34
f 25/49/35 22/50/29 23/48/28 24/45/33
f 4/51/31 22/54/29 25/53/35 8/52/36
s 4
f 29/55/37 31/58/38 27/57/39 28/56/40
f 29/55/37 30/59/41 31/58/38
f 17/60/42 16/61/43 30/59/41 29/55/37
f 28/56/40 12/62/44 17/60/42 29/55/37
f 32/63/45 26/66/46 27/65/39 31/64/38
f 33/67/47 32/63/45 31/64/38 30/68/41
f 16/69/43 20/72/48 33/71/47 30/70/41
s 5
f 34/73/49 40/76/50 39/75/51 36/74/52
f 34/73/49 36/74/52 35/77/53
f 38/78/54 34/73/49 35/77/53 37/79/55
f 40/76/50 34/73/49 38/78/54 41/80/56
f 6/81/57 36/84/52 39/83/51 9/82/58
f 7/85/59 35/86/53 36/84/52 6/81/57
f 37/87/55 35/90/53 7/89/59 8/88/60
s 6
f 42/91/61 44/94/62 39/93/63 40/92/64
f 42/91/61 43/95/65 44/94/62
f 46/96/66 45/97/67 43/95/65 42/91/61
f 40/92/64 41/98/68 46/96/66 42/91/61
f 18/99/69 9/102/70 39/101/63 44/100/62
f 19/103/71 18/99/69 44/100/62 43/104/65
f 45/105/67 20/108/72 19/107/71 43/106/65
s 7
f 47/109/73 49/112/74 50/111/75 51/110/76
f 47/109/73 48/113/77 49/112/74
f 38/114/78 37/115/79 48/113/77 47/109/73
f 51/110/76 41/116/80 38/114/78 47/109/73
f 24/117/81 26/120/82 50/119/75 49/118/74
f 25/121/83 24/117/81 49/118/74 48/122/77
f 37/123/79 8/126/84 25/125/83 48/124/77
s 8
f 52/127/85 51/130/86 50/129/87 54/128/88
f 52/127/85 54/128/88 53/131/89
f 46/132/90 52/127/85 53/131/89 45/133/91
f 51/130/86 52/127/85 46/132/90 41/134/92
f 32/135/93 54/138/88 50/137/87 26/136/94
f 33/139/95 53/140/89 54/138/88 32/135/93
f 45/141/91 53/144/89 33/143/95 20/142/96
