# This file uses meters as units for non-parametric coordinates.

mtllib Mayo.mtl
g default
v 14.851638 3.710897 -0.269232
v 21.178547 1.862625 1.270055
v 14.131299 4.042008 5.420309
v 20.807489 1.995603 4.805379
v 13.488774 -1.812839 -10.770635
v 14.694033 2.024062 -5.797979
v 10.147120 -0.408645 9.445209
v 12.340698 2.212541 10.950324
v 16.818946 -6.012152 3.005848
v 24.034694 0.524550 3.744094
v 15.038216 -4.224378 -8.481696
v 22.826367 0.261549 -3.517733
v 11.724114 -1.771577 7.568584
v 20.050394 -0.253268 10.310970
v 4.280716 6.032640 -0.718519
v 4.984235 3.967434 -6.931691
v 4.180172 -0.271662 -11.525471
v 3.862445 -3.102999 -9.904275
v 0.866680 -7.993154 -4.070084
v 2.528778 -1.499796 4.170407
v 2.366063 0.900099 9.140127
v 3.163461 4.061414 11.120925
v 3.626467 6.364791 5.580713
v -9.136143 7.184201 -0.629182
v -18.557354 7.566683 -0.887685
v -9.146658 7.804997 6.095402
v -19.832548 7.886418 3.652369
v -6.591389 0.240580 -11.011805
v -8.117337 4.480477 -7.046136
v -5.422287 0.916387 9.792041
v -8.423381 4.768683 11.943255
v -16.218077 -7.106159 -2.817672
v -24.034694 5.329530 0.991552
v -9.163927 -1.533679 -8.845303
v -19.549238 4.554817 -7.895887
v -9.443838 -0.460338 6.663489
v -18.146521 4.725620 8.572374
vt 0.330763 0.347867
vt 0.330865 0.391583
vt 0.305673 0.533378
vt 0.317669 0.545330
vt 0.323544 0.309896
vt 0.346168 0.296843
vt 0.318151 0.545269
vt 0.317976 0.678409
vt 0.345657 0.303321
vt 0.350569 0.393555
vt 0.323995 0.429368
vt 0.350380 0.346060
vt 0.345987 0.435445
vt 0.206753 0.370379
vt 0.193531 0.370457
vt 0.321266 0.303508
vt 0.321697 0.435931
vt 0.346557 0.441941
vt 0.305940 0.533305
vt 0.318141 0.678458
vt 0.486378 0.303312
vt 0.486348 0.296825
vt 0.172743 0.533339
vt 0.172851 0.545298
vt 0.172692 0.678431
vt 0.172528 0.678435
vt 0.172369 0.545302
vt 0.486737 0.441923
vt 0.172476 0.533343
vt 0.486708 0.435436
vt 0.486638 0.393122
vt 0.486450 0.345626
vt 0.330763 0.347867
vt 0.350380 0.346060
vt 0.350569 0.393555
vt 0.330865 0.391583
vt 0.346168 0.296843
vt 0.345657 0.303321
vt 0.323544 0.309896
vt 0.321266 0.303508
vt 0.345987 0.435445
vt 0.346557 0.441941
vt 0.321697 0.435931
vt 0.323995 0.429368
vt 0.193531 0.370457
vt 0.206753 0.370379
vt 0.486378 0.303312
vt 0.486450 0.345626
vt 0.486348 0.296825
vt 0.318151 0.545269
vt 0.172851 0.545298
vt 0.172743 0.533339
vt 0.305940 0.533305
vt 0.172692 0.678431
vt 0.318141 0.678458
vt 0.317669 0.545330
vt 0.172369 0.545302
vt 0.172528 0.678435
vt 0.317976 0.678409
vt 0.172476 0.533343
vt 0.305673 0.533378
vt 0.486708 0.435436
vt 0.486737 0.441923
vt 0.486638 0.393122
vn 0.325956 0.934487 -0.143129
vn 0.248197 0.955144 -0.161550
vn 0.250862 0.949365 0.189143
vn 0.336226 0.914601 0.224627
vn 0.268560 0.294913 -0.917007
vn 0.312545 0.796358 -0.517813
vn 0.832504 -0.421547 -0.359492
vn 0.355843 -0.787912 -0.502564
vn 0.197306 0.601411 0.774193
vn -0.125175 -0.710383 0.692594
vn -0.087961 -0.795896 0.599010
vn 0.491249 -0.292488 0.820442
vn 0.255067 -0.955523 0.148040
vn 0.631352 -0.766355 0.118723
vn 0.123190 0.856683 -0.500917
vn 0.136456 0.971590 -0.193371
vn 0.061789 0.367926 -0.927800
vn 0.024324 -0.816859 -0.576324
vn -0.028615 -0.999572 0.006073
vn -0.076228 -0.819612 0.567825
vn -0.038624 -0.746848 0.663872
vn 0.124197 0.631767 0.765144
vn 0.148347 0.975346 0.163379
vn -0.047606 0.963937 -0.261837
vn -0.192085 0.953556 0.232020
vn 0.023978 0.975554 0.218450
vn 0.060660 0.970896 -0.231691
vn -0.059527 0.281708 -0.957652
vn -0.273173 -0.511062 -0.814980
vn -0.588878 0.006646 -0.808194
vn 0.013442 0.819072 -0.573534
vn -0.107135 0.432753 0.895124
vn -0.524166 -0.276940 0.805329
vn -0.177560 -0.767857 0.615523
vn -0.051266 -0.744444 0.665714
vn -0.462731 -0.885635 0.039127
vn -0.783199 -0.607599 0.131992
s 1
g Mayo Ingredients
usemtl lambert5SG
f 2/1/1 1/12/2 3/10/3 4/2/4
f 5/6/5 6/9/6 12/5/7 11/16/8
f 8/13/9 7/18/10 13/17/11 14/11/12
f 9/15/13 10/14/14 14/11/12 13/17/11
f 10/14/14 9/15/13 11/16/8 12/5/7
f 12/5/7 6/9/6 1/12/2 2/1/1
f 4/2/4 3/10/3 8/13/9 14/11/12
f 12/5/7 2/1/1 10/14/14
f 2/1/1 4/2/4 10/14/14
f 4/2/4 14/11/12 10/14/14
f 16/21/15 15/32/16 1/12/2 6/9/6
f 17/22/17 16/21/15 6/9/6 5/6/5
f 11/7/8 18/24/18 17/23/17 5/19/5
f 19/25/19 18/24/18 11/7/8 9/20/13
f 13/4/11 20/27/20 19/26/19 9/8/13
f 21/29/21 20/27/20 13/4/11 7/3/10
f 22/30/22 21/28/21 7/18/10 8/13/9
f 23/31/23 22/30/22 8/13/9 3/10/3
f 15/32/16 23/31/23 3/10/3 1/12/2
f 25/33/24 27/36/25 26/35/26 24/34/27
f 28/37/28 34/40/29 35/39/30 29/38/31
f 31/41/32 37/44/33 36/43/34 30/42/35
f 32/45/36 36/43/34 37/44/33 33/46/37
f 33/46/37 35/39/30 34/40/29 32/45/36
f 35/39/30 25/33/24 24/34/27 29/38/31
f 27/36/25 37/44/33 31/41/32 26/35/26
f 35/39/30 33/46/37 25/33/24
f 25/33/24 33/46/37 27/36/25
f 27/36/25 33/46/37 37/44/33
f 16/47/15 29/38/31 24/34/27 15/48/16
f 17/49/17 28/37/28 29/38/31 16/47/15
f 34/50/29 28/53/28 17/52/17 18/51/18
f 19/54/19 32/55/36 34/50/29 18/51/18
f 36/56/34 32/59/36 19/58/19 20/57/20
f 21/60/21 30/61/35 36/56/34 20/57/20
f 22/62/22 31/41/32 30/42/35 21/63/21
f 23/64/23 26/35/26 31/41/32 22/62/22
f 15/48/16 24/34/27 26/35/26 23/64/23
