# This file uses meters as units for non-parametric coordinates.

mtllib SpringOnion.mtl
g default
v 20.346808 7.035110 -1.220642
v 20.346808 3.796249 4.971252
v 20.346808 -3.983475 -2.332550
v 1.837615 7.035110 -1.220642
v 1.837615 -3.983475 -2.332550
v 1.837615 3.796249 4.971252
v -16.671578 7.035110 -1.220642
v -16.671578 3.796249 4.971252
v -16.671578 -3.983475 -2.332550
v 18.845071 -2.479401 -1.537781
v 18.845071 2.457443 3.407654
v 18.845071 -6.841934 8.641327
v 0.335878 -2.479401 -1.537781
v 0.335878 -6.841934 8.641327
v 0.335878 2.457443 3.407654
v -18.173316 -2.479401 -1.537781
v -18.173316 2.457443 3.407654
v -18.173316 -6.841934 8.641327
v 16.671578 -6.106079 -8.641327
v 16.671578 0.138657 -5.505585
v 16.671578 -7.035110 2.394196
v -1.837615 -6.106079 -8.641327
v -1.837615 -7.035110 2.394196
v -1.837615 0.138657 -5.505585
v -20.346808 -6.106079 -8.641327
v -20.346808 0.138657 -5.505585
v -20.346808 -7.035110 2.394196
vt 0.844559 0.569634
vt 0.877761 0.580186
vt 0.844259 0.624084
vt 0.844639 0.623988
vt 0.844084 0.569956
vt 0.844113 0.623853
vt 0.844598 0.569829
vt 0.877733 0.579823
vt 0.877840 0.580051
vt 0.753839 0.622992
vt 0.950495 0.635524
vt 0.871075 0.482454
vt 0.753837 0.569153
vt 0.917470 0.679101
vt 0.904467 0.492600
vt 0.844598 0.569829
vt 0.844639 0.623988
vt 0.877761 0.580186
vt 0.950495 0.635524
vt 0.917470 0.679101
vt 0.844259 0.624084
vt 0.877733 0.579823
vt 0.844084 0.569956
vt 0.753837 0.569153
vt 0.753839 0.622992
vt 0.844113 0.623853
vt 0.904467 0.492600
vt 0.871075 0.482454
vt 0.844559 0.569634
vt 0.877840 0.580051
vt 0.844598 0.569829
vt 0.844639 0.623988
vt 0.877761 0.580186
vt 0.950495 0.635524
vt 0.917470 0.679101
vt 0.844259 0.624084
vt 0.877733 0.579823
vt 0.844084 0.569956
vt 0.753837 0.569153
vt 0.753839 0.622992
vt 0.844113 0.623853
vt 0.904467 0.492600
vt 0.871075 0.482454
vt 0.844559 0.569634
vt 0.877840 0.580051
vt 0.844598 0.569829
vt 0.877761 0.580186
vt 0.844639 0.623988
vt 0.950495 0.635524
vt 0.877733 0.579823
vt 0.844259 0.624084
vt 0.917470 0.679101
vt 0.844084 0.569956
vt 0.844113 0.623853
vt 0.753839 0.622992
vt 0.753837 0.569153
vt 0.904467 0.492600
vt 0.877840 0.580051
vt 0.844559 0.569634
vt 0.871075 0.482454
vt 0.844598 0.569829
vt 0.844639 0.623988
vt 0.877761 0.580186
vt 0.950495 0.635524
vt 0.917470 0.679101
vt 0.844259 0.624084
vt 0.877733 0.579823
vt 0.844084 0.569956
vt 0.753837 0.569153
vt 0.753839 0.622992
vt 0.844113 0.623853
vt 0.904467 0.492600
vt 0.871075 0.482454
vt 0.844559 0.569634
vt 0.877840 0.580051
vt 0.844598 0.569829
vt 0.877761 0.580186
vt 0.844639 0.623988
vt 0.950495 0.635524
vt 0.877733 0.579823
vt 0.844259 0.624084
vt 0.917470 0.679101
vt 0.844084 0.569956
vt 0.844113 0.623853
vt 0.753839 0.622992
vt 0.753837 0.569153
vt 0.904467 0.492600
vt 0.877840 0.580051
vt 0.844559 0.569634
vt 0.871075 0.482454
vn 1.000000 -0.000000 0.000000
vn 1.000000 -0.000000 0.000000
vn 1.000000 -0.000000 0.000000
vn 0.000000 0.100402 -0.994947
vn 0.000000 0.100402 -0.994947
vn 0.000000 0.100402 -0.994947
vn 0.000000 0.100402 -0.994947
vn 0.000000 -0.684455 0.729055
vn 0.000000 -0.684455 0.729055
vn 0.000000 -0.684455 0.729055
vn 0.000000 -0.684455 0.729055
vn 0.000000 0.886097 0.463500
vn 0.000000 0.886097 0.463500
vn 0.000000 0.886097 0.463500
vn 0.000000 0.886097 0.463500
vn -1.000000 0.000000 0.000000
vn -1.000000 0.000000 0.000000
vn -1.000000 0.000000 0.000000
vn 0.000000 0.100402 -0.994947
vn 0.000000 0.100402 -0.994947
vn 0.000000 -0.684455 0.729055
vn 0.000000 -0.684455 0.729055
vn 0.000000 0.886097 0.463500
vn 0.000000 0.886097 0.463500
vn 1.000000 0.000000 0.000000
vn 1.000000 0.000000 0.000000
vn 1.000000 0.000000 0.000000
vn 0.000000 -0.919143 -0.393924
vn 0.000000 -0.919143 -0.393924
vn 0.000000 -0.919143 -0.393924
vn 0.000000 -0.919143 -0.393924
vn 0.000000 0.490459 0.871465
vn 0.000000 0.490459 0.871465
vn 0.000000 0.490459 0.871465
vn 0.000000 0.490459 0.871465
vn 0.000000 0.707721 -0.706492
vn 0.000000 0.707721 -0.706492
vn 0.000000 0.707721 -0.706492
vn 0.000000 0.707721 -0.706492
vn -1.000000 -0.000000 0.000000
vn -1.000000 -0.000000 0.000000
vn -1.000000 -0.000000 0.000000
vn 0.000000 -0.919143 -0.393924
vn 0.000000 -0.919143 -0.393924
vn 0.000000 0.490459 0.871465
vn 0.000000 0.490459 0.871465
vn 0.000000 0.707721 -0.706492
vn 0.000000 0.707721 -0.706492
vn 1.000000 -0.000000 0.000000
vn 1.000000 -0.000000 0.000000
vn 1.000000 -0.000000 0.000000
vn 0.000000 -0.996475 -0.083888
vn 0.000000 -0.996475 -0.083888
vn 0.000000 -0.996475 -0.083888
vn 0.000000 -0.996475 -0.083888
vn 0.000000 0.740306 0.672270
vn 0.000000 0.740306 0.672270
vn 0.000000 0.740306 0.672270
vn 0.000000 0.740306 0.672270
vn 0.000000 0.448744 -0.893661
vn 0.000000 0.448744 -0.893661
vn 0.000000 0.448744 -0.893661
vn 0.000000 0.448744 -0.893661
vn -1.000000 0.000000 0.000000
vn -1.000000 0.000000 0.000000
vn -1.000000 0.000000 0.000000
vn 0.000000 -0.996475 -0.083888
vn 0.000000 -0.996475 -0.083888
vn 0.000000 0.740306 0.672270
vn 0.000000 0.740306 0.672270
vn 0.000000 0.448744 -0.893661
vn 0.000000 0.448744 -0.893661
s off
g SpringOnion Ingredients
usemtl lambert5SG
f 2/7/1 3/4/2 1/2/3
s 1
f 5/11/4 4/14/5 1/3/6 3/8/7
s 2
f 2/5/8 6/13/9 5/10/10 3/6/11
s 3
f 4/15/12 6/12/13 2/1/14 1/9/15
s off
f 8/16/16 7/18/17 9/17/18
s 1
f 5/19/4 9/22/19 7/21/20 4/20/5
s 2
f 8/23/21 9/26/22 5/25/10 6/24/9
s 3
f 4/27/12 7/30/23 8/29/24 6/28/13
s off
f 11/31/25 12/32/26 10/33/27
s 4
f 14/34/28 13/35/29 10/36/30 12/37/31
s 5
f 11/38/32 15/39/33 14/40/34 12/41/35
s 6
f 13/42/36 15/43/37 11/44/38 10/45/39
s off
f 17/46/40 16/47/41 18/48/42
s 4
f 14/49/28 18/50/43 16/51/44 13/52/29
s 5
f 17/53/45 18/54/46 14/55/34 15/56/33
s 6
f 13/57/36 16/58/47 17/59/48 15/60/37
s off
f 20/61/49 21/62/50 19/63/51
s 7
f 23/64/52 22/65/53 19/66/54 21/67/55
s 8
f 20/68/56 24/69/57 23/70/58 21/71/59
s 9
f 22/72/60 24/73/61 20/74/62 19/75/63
s off
f 26/76/64 25/77/65 27/78/66
s 7
f 23/79/52 27/80/67 25/81/68 22/82/53
s 8
f 26/83/69 27/84/70 23/85/58 24/86/57
s 9
f 22/87/60 25/88/71 26/89/72 24/90/61
